<?xml version="1.0" encoding="UTF-8"?>
<svg id="Calque_2" data-name="Calque 2" xmlns="http://www.w3.org/2000/svg" viewBox="0 0 471.99 314.53">
  <g id="Calque_1-2" data-name="Calque 1">
    <path d="M.5,216.33c-.2-.96-.51-1.74-.5-2.52,.1-16.63-.14-33.27,.5-49.87,.53-13.65,12.69-25.11,26.36-25.95,1.99-.12,3.98-.25,5.98-.25,135.37-.01,270.73,.03,406.1-.07,13.28,0,23.83,4.37,29.78,16.69,1.88,3.9,2.95,8.56,3.05,12.9,.37,15.63,.17,31.26,.16,46.9,0,.63-.28,1.26-.49,2.18H.5Zm393.28-38.97v19.09h18.64v-19.09h-18.64Zm57.74,19.14v-19.05h-18.51v19.05h18.51Z"/>
    <path d="M69.19,117.81h-19.64c-.11-1.04-.29-1.99-.29-2.93-.01-28.28-.1-56.57,.03-84.85,.07-14.73,8.89-25.8,23.05-29.19,2.7-.65,5.6-.66,8.41-.66C184.22,.15,287.69,.32,391.15,0c18.11-.06,32.01,13.91,31.68,31.51-.54,28.59-.15,57.2-.15,86.18h-19.89c0-9.05,.02-17.98,0-26.92-.06-25.16-13.96-43.35-38.26-49.82-3.17-.84-6.56-1.22-9.85-1.22-21.29-.03-42.6-.49-63.86,.35-24.13,.95-44.52,22.87-44.87,47.02-.15,10.11-.02,20.23-.02,30.65h-19.91c0-8.65,.37-17.42-.12-26.13-.36-6.39-1.17-12.91-2.96-19.03-5.1-17.48-23.09-31.99-41.32-32.49-22.76-.62-45.58-.77-68.33,.03-23.31,.82-43.64,22.73-44.07,46.12-.19,10.43-.03,20.86-.03,31.55Z"/>
    <path d="M471.7,314.53h-21.77c-2.43-9.66-4.86-19.25-7.27-28.86-2-7.97-4.6-10.04-12.93-10.04-129.23,0-258.46,0-387.69,0-8.18,0-10.74,2.11-12.78,10.22-2.37,9.48-4.78,18.95-7.23,28.61H.3v-78.17H471.7v78.24Z"/>
    <path d="M206.49,117.8H88.33c0-4.02-.08-8.1,.02-12.17,.16-7.3-.23-14.69,.79-21.88,2.05-14.47,14.09-24.52,28.75-24.6,18.79-.11,37.59,.5,56.35-.19,16.23-.6,31.4,10.64,32.18,28.32,.44,10.07,.08,20.18,.08,30.53Z"/>
    <path d="M383.42,117.87h-118.93c.77-12.76,.34-25.48,2.6-37.69,2.37-12.81,14.37-20.94,27.45-21.02,19.45-.12,38.9-.07,58.35-.02,16.66,.04,28.94,10.7,30.36,27.41,.87,10.2,.16,20.54,.16,31.32Z"/>
  </g>
</svg>