<?xml version="1.0" encoding="UTF-8"?>
<svg id="Calque_2" data-name="Calque 2" xmlns="http://www.w3.org/2000/svg" viewBox="0 0 380.77 382.8">
  <g id="Calque_1-2" data-name="Calque 1">
    <path d="M16.67,240.25c17.83,4.34,35.05,8.53,52.58,12.8,0,3.92,0,8.02,0,12.13,0,16.22,0,32.43,0,48.65,0,1-.06,2,.04,2.99,.33,3.49,2.92,6.05,6,6.02,3.09-.03,5.72-2.59,5.89-6.11,.18-3.73,.04-7.47,.04-11.5h17.98c0,3.37-.04,6.82,0,10.26,.06,4.39,2.33,7.23,5.81,7.36,3.59,.13,6.09-2.84,6.16-7.39,.05-3.35,0-6.7,0-10.28h17.96c0,3.56-.04,7.02,.01,10.47,.07,4.33,2.49,7.19,5.97,7.2,3.49,0,5.98-2.85,5.99-7.18,.04-16.22,.02-32.43,.02-48.65,0-1.35,0-2.7,0-4.42,74.78,5.76,147.88-1.98,219.67-22.6-1.18,5.29-3.13,10.3-3.27,15.36-.58,20.56-.63,41.13-.81,61.7-.08,8.98-3.01,16.86-8.94,23.55-7.06,7.96-15.95,12.2-26.66,12.2-88.06,.02-176.13,.03-264.19,0-19.52,0-35.46-15.95-35.54-35.41-.06-14.59-.1-29.19,.02-43.78,.09-11.25-.06-22.43-4.71-33.36Z"/>
    <path d="M141.23,250.88v-49.25c6.28,.34,12.44,.89,18.6,.97,18.33,.22,36.68,.83,54.98,.22,28.17-.94,56.14-4.31,83.71-10.22,16.76-3.59,33.37-7.94,49.97-12.26,14.04-3.66,27.33,3.06,31.24,16.25,3.91,13.16-3.42,26.39-17.34,30.62-25.73,7.82-51.92,13.62-78.47,17.9-37.41,6.03-75.05,8.24-112.89,7.3-9.82-.24-19.63-.99-29.8-1.52Z"/>
    <path d="M278.8,51.51c-12.02-5.32-23.75-5.3-35.5-.16-.36-.2-.72-.4-1.08-.6,1.6-5.9,2.62-12.05,4.92-17.67C256.28,10.67,279.25-2.42,303.75,.37c23.31,2.65,42.43,21.32,46.3,45.26,.34,2.08,.62,4.2,.62,6.3,.04,37.67,.03,75.33,.03,113,0,.86-.08,1.72-.13,2.77-11.79,3.16-23.51,6.3-35.78,9.59,0-1.99,0-3.43,0-4.87,0-39.16,.02-78.33-.01-117.49,0-10.21-6.25-17.74-15.51-18.91-9.37-1.18-17.24,4.11-19.74,13.27-.16,.58-.37,1.15-.71,2.21Z"/>
    <path d="M128.91,268.91h-47.67c0-1.38,0-2.69,0-4,0-26.18,0-52.35,0-78.53,0-8.44,4.73-13.19,13.13-13.2,7.73-.01,15.46-.07,23.18,.02,6.28,.08,11.52,5.14,11.54,11.37,.07,27.55,.03,55.09,.02,82.64,0,.47-.11,.94-.21,1.69Z"/>
    <path d="M260.5,113.29c-7.61,0-15.22,.03-22.83-.01-4.53-.03-6.77-2.14-6.7-6.59,.12-7.96-.5-16.08,.86-23.85,2.66-15.15,17.04-24.96,32.6-23.36,14.68,1.51,26.3,14.54,26.38,29.61,.03,5.74,.03,11.48,0,17.21-.03,4.92-2.1,6.95-7.1,6.97-7.73,.03-15.47,0-23.2,0Z"/>
    <path d="M104.64,364.73c-4.73,5.88-8.71,11.1-13.04,16.02-1.05,1.2-3.26,1.9-4.95,1.93-9.59,.18-19.18,.12-28.76,.07-4.44-.02-6.53-2.19-6.58-6.7-.04-3.72,0-7.44,0-11.32h53.35Z"/>
    <path d="M326.73,364.88c0,4.13,.12,8.23-.04,12.32-.12,3.3-2.43,5.5-5.83,5.53-10.08,.08-20.17,.11-30.25-.06-1.44-.02-3.28-.85-4.21-1.93-4.27-4.97-8.28-10.16-12.86-15.87h53.18Z"/>
    <path d="M81.41,292.69v-11.52h47.42v11.52h-47.42Z"/>
    <path d="M242.85,128.59c0,1.24,.21,2.53-.04,3.72-.67,3.18-2.7,4.99-6.03,4.91-3.31-.08-5.36-1.93-5.76-5.18-.27-2.2-.14-4.47-.06-6.7,.13-3.73,2.59-6.1,6.1-6.03,3.35,.07,5.65,2.39,5.83,5.94,.06,1.11,0,2.24,0,3.35-.02,0-.03,0-.05,0Z"/>
    <path d="M266.86,128.31c0,6.26-1.69,8.84-5.85,8.93-4.34,.09-6.12-2.54-6.12-9.02,0-6.3,1.66-8.84,5.84-8.92,4.35-.09,6.13,2.53,6.13,9.01Z"/>
    <path d="M290.76,128.6c0,1.24,.21,2.53-.04,3.72-.68,3.18-2.72,4.99-6.04,4.89-3.31-.09-5.35-1.94-5.75-5.2-.27-2.2-.14-4.47-.06-6.7,.14-3.72,2.6-6.1,6.11-6.02,3.34,.07,5.64,2.41,5.82,5.95,.06,1.11,0,2.24,0,3.35-.02,0-.03,0-.05,0Z"/>
    <path d="M242.89,152.37c0,1.12,.08,2.24-.02,3.35-.29,3.24-2.72,5.46-5.92,5.47-3.2,.02-5.73-2.18-5.97-5.4-.16-2.1-.09-4.22-.03-6.33,.11-3.81,2.43-6.19,5.93-6.21,3.5-.02,5.86,2.37,6.02,6.14,.04,.99,0,1.99,0,2.98h-.01Z"/>
    <path d="M266.86,152.33c0,.99,.05,1.99-.01,2.98-.2,3.52-2.56,5.84-5.9,5.88-3.35,.04-5.83-2.27-6.02-5.74-.11-1.98-.07-3.97-.02-5.96,.11-3.82,2.39-6.21,5.9-6.25,3.5-.04,5.88,2.35,6.05,6.1,.04,.99,0,1.99,0,2.98Z"/>
    <path d="M290.81,152.26c0,6.26-1.69,8.84-5.84,8.93-4.34,.09-6.12-2.54-6.12-9.02,0-6.3,1.66-8.84,5.84-8.93,4.35-.09,6.13,2.53,6.13,9.01Z"/>
    <path d="M242.85,176.5c0,1.24,.21,2.53-.04,3.72-.67,3.18-2.7,4.99-6.03,4.91-3.32-.08-5.36-1.93-5.76-5.19-.27-2.2-.14-4.47-.06-6.7,.13-3.72,2.59-6.1,6.1-6.03,3.35,.07,5.65,2.39,5.83,5.94,.06,1.11,0,2.24,0,3.35-.02,0-.03,0-.05,0Z"/>
    <path d="M254.89,176.08c0-.87-.03-1.74,0-2.61,.13-3.83,2.38-6.22,5.88-6.27,3.5-.05,5.92,2.34,6.07,6.08,.07,1.86,.06,3.73,0,5.59-.11,3.8-2.41,6.23-5.88,6.28-3.65,.05-5.96-2.4-6.07-6.46-.02-.87,0-1.74,0-2.61Z"/>
    <path d="M278.89,175.97c0-1.24-.19-2.52,.04-3.72,.59-3.22,2.59-5.03,5.92-5.03,3.33,0,5.42,1.83,5.87,5.06,.32,2.32,.18,4.72,.07,7.07-.16,3.49-2.62,5.8-5.97,5.79-3.35,0-5.74-2.32-5.95-5.82-.07-1.11-.01-2.24-.01-3.35,.01,0,.02,0,.03,0Z"/>
    <path d="M71.83,191.09v49.74c-6.78-1.54-13.39-2.91-19.93-4.57-11.31-2.89-22.63-5.78-33.85-9.02-13.35-3.85-20.75-17.08-17.14-30.05,3.61-13,16.74-20.47,30.16-16.99,13.56,3.52,27.07,7.23,40.76,10.9Z"/>
  </g>
</svg>