<?xml version="1.0" encoding="UTF-8"?>
<svg id="Calque_2" data-name="Calque 2" xmlns="http://www.w3.org/2000/svg" viewBox="0 0 164.38 164.19">
  <g id="Calque_1-2" data-name="Calque 1">
    <g>
      <path d="M1.23,17.96C5.7,13.34,10.14,8.69,14.66,4.11,18.93-.23,22.73-1.18,25.84,1.48c3.96,3.38,3.16,7.2,.02,11.47h52.44c-.57-.81-1.37-2.12-1.93-3.87-.46-1.44-.81-2.54-.51-3.84,.52-2.23,2.59-3.43,3.21-3.75,2.85-1.48,6.37-.98,7.97,.32,5.23,4.26,9.85,9.3,14.43,14.3,2.98,3.26,2.11,6.76-.78,9.74-4.03,4.16-8.18,8.21-12.27,12.31-2.95,2.96-6.37,3.83-9.8,1.25-3.45-2.6-3.64-6.06-1.28-9.66,.33-.51,.58-1.07,1.06-1.97H26.06c.59,1.14,.99,1.98,1.44,2.78,1.91,3.43,1.27,6.56-1.69,8.84-2.95,2.27-6.3,2.15-9.03-.54-5.28-5.22-10.38-10.61-15.56-15.93-.12-.09-1.29-1.04-1.22-2.62,.06-1.42,1.07-2.23,1.22-2.35Z"/>
      <path d="M141.37,163.08c-5.11-4.94-10.23-9.85-15.32-14.81-3.01-2.94-3.73-6.44-1.1-9.79,2.45-3.13,5.8-3.58,9.29-1.33,.53,.34,1.1,.6,2.16,1.17v-52.41c-.66,.55-1.86,1.38-3.55,1.86-.96,.27-2.44,.68-4.22,.18-.26-.07-2.31-.68-3.55-2.45-1.79-2.55-1.41-6.25-.34-7.52,4.78-5.66,10.16-10.88,15.75-15.75,2.94-2.55,6.28-1.03,8.87,1.53,3.77,3.72,7.52,7.47,11.24,11.23,3.95,3.98,4.71,7.76,2.25,10.88-2.54,3.22-5.91,3.36-11.46,.21v52.15c1.09-.57,1.93-1.03,2.79-1.44,3.5-1.66,6.61-.91,8.79,2.12,2.04,2.85,1.89,6.05-.67,8.62-5.24,5.27-10.63,10.39-15.96,15.57-.16,.18-.96,1.02-2.26,1.11-1.57,.1-2.58-.97-2.71-1.11Z"/>
      <rect x=".24" y="60.27" width="102.84" height="103.33" rx="22.3" ry="22.3" style="fill: #1d1d1b;"/>
    </g>
  </g>
</svg>