<?xml version="1.0" encoding="UTF-8"?>
<svg id="Calque_2" data-name="Calque 2" xmlns="http://www.w3.org/2000/svg" viewBox="0 0 335.51 335.07">
  <g id="Calque_1-2" data-name="Calque 1">
    <path d="M323.42,335.07h-23.73v-71.52h-72.03v71.42h-24.01c0-1.29,0-2.6,0-3.91,0-30.31,0-60.63,0-90.94,0-14.45,10.25-24.73,24.65-24.74,22.2-.01,44.4,0,66.61,0,1.35,0,2.71,0,4.25,0,.12-.78,.3-1.36,.3-1.94-.13-21.1,1.17-42.12,4.62-62.94,1.85-11.15,4.33-22.21,6.95-33.21,1.72-7.24,9.09-11.49,15.43-9.58,7.02,2.12,10.29,9.24,8.63,17.18-3.15,15.08-6.72,30.14-8.6,45.39-1.94,15.67-2.71,31.56-2.88,47.37-.41,37.55-.16,75.1-.18,112.65,0,1.48,0,2.95,0,4.77Z"/>
    <path d="M35.08,216.21c1.52,.07,2.74,.17,3.96,.17,23.08-.02,46.17-.02,69.25-.08,13.4-.03,23.45,9.87,23.46,23.3,.03,30.57,0,61.15,0,91.72,0,1.11,0,2.21,0,3.57h-23.82v-71.34H36.01v71.4H11.99c0-1.42,0-2.86,0-4.3-.02-37.69,.16-75.38-.12-113.06-.22-29.96-2.36-59.76-10.31-88.86-.84-3.08-1.65-6.33-1.55-9.47,.21-6.03,4.54-10.44,9.87-10.89,5.72-.48,11.69,3.13,12.88,8.65,3.1,14.34,6.69,28.65,8.43,43.17,2.1,17.54,2.51,35.29,3.65,52.95,.06,.87,.14,1.73,.24,3.05Z"/>
    <path d="M275.51,191.25H60.02c0-8.95-.32-17.78,.12-26.57,.26-5.15,5.01-8.87,10.26-9.2,.99-.06,2-.03,2.99-.03,62.88,0,125.76,0,188.64,0,9.4,0,13.47,4.03,13.47,13.35,0,7.35,0,14.7,0,22.44Z"/>
    <path d="M108.02,107.26c-1.12-20.19,12.87-50,47.53-58.54V0h24.02V48.63c16.54,4.07,29.62,12.74,38.73,26.94,6.12,9.54,9.33,20,9.3,31.68H108.02Z"/>
    <path d="M149.99,203.57h35.5v131.3h-35.5V203.57Z"/>
  </g>
</svg>